<?xml version="1.0" standalone="no"?><svg xmlns="http://www.w3.org/2000/svg" viewBox="0 0 1440 320"><path fill="#ff00ea" fill-opacity="1" d="M0,256L17.1,224C34.3,192,69,128,103,90.7C137.1,53,171,43,206,53.3C240,64,274,96,309,106.7C342.9,117,377,107,411,122.7C445.7,139,480,181,514,208C548.6,235,583,245,617,245.3C651.4,245,686,235,720,218.7C754.3,203,789,181,823,144C857.1,107,891,53,926,64C960,75,994,149,1029,186.7C1062.9,224,1097,224,1131,224C1165.7,224,1200,224,1234,234.7C1268.6,245,1303,267,1337,256C1371.4,245,1406,203,1423,181.3L1440,160L1440,0L1422.9,0C1405.7,0,1371,0,1337,0C1302.9,0,1269,0,1234,0C1200,0,1166,0,1131,0C1097.1,0,1063,0,1029,0C994.3,0,960,0,926,0C891.4,0,857,0,823,0C788.6,0,754,0,720,0C685.7,0,651,0,617,0C582.9,0,549,0,514,0C480,0,446,0,411,0C377.1,0,343,0,309,0C274.3,0,240,0,206,0C171.4,0,137,0,103,0C68.6,0,34,0,17,0L0,0Z"></path></svg>