<?xml version="1.0" standalone="no"?><svg xmlns="http://www.w3.org/2000/svg" viewBox="0 0 1440 320"><path fill="#ff00ea" fill-opacity="1" d="M0,128L20,149.3C40,171,80,213,120,197.3C160,181,200,107,240,90.7C280,75,320,117,360,144C400,171,440,181,480,186.7C520,192,560,192,600,181.3C640,171,680,149,720,154.7C760,160,800,192,840,176C880,160,920,96,960,96C1000,96,1040,160,1080,186.7C1120,213,1160,203,1200,192C1240,181,1280,171,1320,149.3C1360,128,1400,96,1420,80L1440,64L1440,320L1420,320C1400,320,1360,320,1320,320C1280,320,1240,320,1200,320C1160,320,1120,320,1080,320C1040,320,1000,320,960,320C920,320,880,320,840,320C800,320,760,320,720,320C680,320,640,320,600,320C560,320,520,320,480,320C440,320,400,320,360,320C320,320,280,320,240,320C200,320,160,320,120,320C80,320,40,320,20,320L0,320Z"></path></svg>